<mxfile host="Electron" agent="Mozilla/5.0 (X11; Linux x86_64) AppleWebKit/537.36 (KHTML, like Gecko) draw.io/28.2.5 Chrome/138.0.7204.251 Electron/37.6.1 Safari/537.36" version="28.2.5">
  <diagram id="TvMiEYvcx8c6-Lp6lkdK" name="Page-1">
    <mxGraphModel dx="958" dy="573" grid="1" gridSize="10" guides="1" tooltips="1" connect="1" arrows="1" fold="1" page="1" pageScale="1" pageWidth="850" pageHeight="1100" math="1" shadow="0">
      <root>
        <mxCell id="0" />
        <mxCell id="1" parent="0" />
        <mxCell id="pqLlUxx56A5nm1wLEIZ4-2" value="" style="ellipse;whiteSpace=wrap;html=1;aspect=fixed;fillColor=none;strokeWidth=3;strokeColor=#000000;" vertex="1" parent="1">
          <mxGeometry x="240" y="160" width="240" height="240" as="geometry" />
        </mxCell>
        <mxCell id="pqLlUxx56A5nm1wLEIZ4-3" value="" style="endArrow=none;html=1;rounded=0;entryX=1;entryY=0;entryDx=0;entryDy=0;dashed=1;strokeWidth=1;strokeColor=#B3B3B3;" edge="1" parent="1">
          <mxGeometry width="50" height="50" relative="1" as="geometry">
            <mxPoint x="230" y="410" as="sourcePoint" />
            <mxPoint x="470" y="170" as="targetPoint" />
          </mxGeometry>
        </mxCell>
        <mxCell id="pqLlUxx56A5nm1wLEIZ4-4" value="" style="endArrow=none;html=1;rounded=0;entryX=1;entryY=0;entryDx=0;entryDy=0;dashed=1;strokeWidth=1;strokeColor=#B3B3B3;" edge="1" parent="1">
          <mxGeometry width="50" height="50" relative="1" as="geometry">
            <mxPoint x="240" y="160" as="sourcePoint" />
            <mxPoint x="480" y="400" as="targetPoint" />
          </mxGeometry>
        </mxCell>
        <mxCell id="pqLlUxx56A5nm1wLEIZ4-6" value="" style="endArrow=none;html=1;rounded=0;dashed=1;strokeWidth=1;strokeColor=#B3B3B3;" edge="1" parent="1">
          <mxGeometry width="50" height="50" relative="1" as="geometry">
            <mxPoint x="200" y="280" as="sourcePoint" />
            <mxPoint x="520" y="280" as="targetPoint" />
          </mxGeometry>
        </mxCell>
        <mxCell id="pqLlUxx56A5nm1wLEIZ4-7" value="" style="endArrow=none;html=1;rounded=0;dashed=1;strokeWidth=1;strokeColor=#B3B3B3;" edge="1" parent="1">
          <mxGeometry width="50" height="50" relative="1" as="geometry">
            <mxPoint x="360" y="420" as="sourcePoint" />
            <mxPoint x="360" y="140" as="targetPoint" />
          </mxGeometry>
        </mxCell>
        <mxCell id="pqLlUxx56A5nm1wLEIZ4-8" value="region 0" style="text;html=1;align=center;verticalAlign=middle;whiteSpace=wrap;rounded=0;strokeWidth=2;fontColor=#B3B3B3;" vertex="1" parent="1">
          <mxGeometry x="410" y="240" width="60" height="30" as="geometry" />
        </mxCell>
        <mxCell id="pqLlUxx56A5nm1wLEIZ4-9" value="region 1" style="text;html=1;align=center;verticalAlign=middle;whiteSpace=wrap;rounded=0;strokeWidth=2;fontColor=#B3B3B3;" vertex="1" parent="1">
          <mxGeometry x="360" y="200" width="60" height="30" as="geometry" />
        </mxCell>
        <mxCell id="pqLlUxx56A5nm1wLEIZ4-10" value="region 2" style="text;html=1;align=center;verticalAlign=middle;whiteSpace=wrap;rounded=0;strokeWidth=2;fontColor=#B3B3B3;" vertex="1" parent="1">
          <mxGeometry x="300" y="200" width="60" height="30" as="geometry" />
        </mxCell>
        <mxCell id="pqLlUxx56A5nm1wLEIZ4-11" value="region 3" style="text;html=1;align=center;verticalAlign=middle;whiteSpace=wrap;rounded=0;strokeWidth=2;fontColor=#B3B3B3;" vertex="1" parent="1">
          <mxGeometry x="260" y="240" width="60" height="30" as="geometry" />
        </mxCell>
        <mxCell id="pqLlUxx56A5nm1wLEIZ4-12" value="region 7" style="text;html=1;align=center;verticalAlign=middle;whiteSpace=wrap;rounded=0;flipH=1;strokeWidth=2;fontColor=#B3B3B3;" vertex="1" parent="1">
          <mxGeometry x="410" y="290" width="60" height="30" as="geometry" />
        </mxCell>
        <mxCell id="pqLlUxx56A5nm1wLEIZ4-13" value="region 6" style="text;html=1;align=center;verticalAlign=middle;whiteSpace=wrap;rounded=0;flipH=1;strokeWidth=2;fontColor=#B3B3B3;" vertex="1" parent="1">
          <mxGeometry x="360" y="330" width="60" height="30" as="geometry" />
        </mxCell>
        <mxCell id="pqLlUxx56A5nm1wLEIZ4-14" value="region 5" style="text;html=1;align=center;verticalAlign=middle;whiteSpace=wrap;rounded=0;flipH=1;strokeWidth=2;fontColor=#B3B3B3;" vertex="1" parent="1">
          <mxGeometry x="300" y="330" width="60" height="30" as="geometry" />
        </mxCell>
        <mxCell id="pqLlUxx56A5nm1wLEIZ4-15" value="region 4" style="text;html=1;align=center;verticalAlign=middle;whiteSpace=wrap;rounded=0;flipH=1;strokeWidth=2;fontColor=#B3B3B3;" vertex="1" parent="1">
          <mxGeometry x="260" y="290" width="60" height="30" as="geometry" />
        </mxCell>
        <mxCell id="pqLlUxx56A5nm1wLEIZ4-16" value="" style="endArrow=oval;html=1;rounded=0;strokeColor=#FF0000;endFill=1;entryX=0.872;entryY=0.172;entryDx=0;entryDy=0;entryPerimeter=0;strokeWidth=2;" edge="1" parent="1" target="pqLlUxx56A5nm1wLEIZ4-2">
          <mxGeometry width="50" height="50" relative="1" as="geometry">
            <mxPoint x="360" y="280" as="sourcePoint" />
            <mxPoint x="610" y="170" as="targetPoint" />
          </mxGeometry>
        </mxCell>
        <mxCell id="pqLlUxx56A5nm1wLEIZ4-17" value="" style="endArrow=oval;html=1;rounded=0;strokeColor=#00CC00;endFill=1;strokeWidth=2;" edge="1" parent="1">
          <mxGeometry width="50" height="50" relative="1" as="geometry">
            <mxPoint x="360" y="280" as="sourcePoint" />
            <mxPoint x="480" y="280" as="targetPoint" />
          </mxGeometry>
        </mxCell>
        <mxCell id="pqLlUxx56A5nm1wLEIZ4-19" value="&lt;font style=&quot;color: rgb(0, 204, 0);&quot;&gt;&lt;b&gt;&#39;d0&lt;/b&gt;&lt;/font&gt;" style="text;html=1;align=center;verticalAlign=middle;whiteSpace=wrap;rounded=0;strokeWidth=2;" vertex="1" parent="1">
          <mxGeometry x="470" y="260" width="40" height="20" as="geometry" />
        </mxCell>
        <mxCell id="pqLlUxx56A5nm1wLEIZ4-20" value="&lt;font style=&quot;color: rgb(255, 0, 0);&quot;&gt;&lt;b&gt;&#39;d1&lt;/b&gt;&lt;/font&gt;" style="text;html=1;align=center;verticalAlign=middle;whiteSpace=wrap;rounded=0;strokeWidth=2;" vertex="1" parent="1">
          <mxGeometry x="450" y="190" width="40" height="20" as="geometry" />
        </mxCell>
        <mxCell id="pqLlUxx56A5nm1wLEIZ4-21" value="" style="endArrow=oval;html=1;rounded=0;strokeColor=#FF0000;endFill=1;entryX=0.53;entryY=0.001;entryDx=0;entryDy=0;entryPerimeter=0;strokeWidth=2;" edge="1" parent="1" target="pqLlUxx56A5nm1wLEIZ4-2">
          <mxGeometry width="50" height="50" relative="1" as="geometry">
            <mxPoint x="360" y="280" as="sourcePoint" />
            <mxPoint x="410" y="190" as="targetPoint" />
          </mxGeometry>
        </mxCell>
        <mxCell id="pqLlUxx56A5nm1wLEIZ4-22" value="" style="endArrow=oval;html=1;rounded=0;strokeColor=#00CC00;endFill=1;jumpSize=3;entryX=1;entryY=0;entryDx=0;entryDy=0;strokeWidth=2;" edge="1" parent="1" target="pqLlUxx56A5nm1wLEIZ4-2">
          <mxGeometry width="50" height="50" relative="1" as="geometry">
            <mxPoint x="360" y="280" as="sourcePoint" />
            <mxPoint x="440" y="200" as="targetPoint" />
          </mxGeometry>
        </mxCell>
        <mxCell id="pqLlUxx56A5nm1wLEIZ4-23" value="&lt;font style=&quot;color: rgb(0, 204, 0);&quot;&gt;&lt;b&gt;&#39;d0&lt;/b&gt;&lt;/font&gt;" style="text;html=1;align=center;verticalAlign=middle;whiteSpace=wrap;rounded=0;strokeWidth=2;" vertex="1" parent="1">
          <mxGeometry x="420" y="170" width="40" height="20" as="geometry" />
        </mxCell>
        <mxCell id="pqLlUxx56A5nm1wLEIZ4-24" value="&lt;font style=&quot;color: rgb(255, 0, 0);&quot;&gt;&lt;b&gt;&#39;d1&lt;/b&gt;&lt;/font&gt;" style="text;html=1;align=center;verticalAlign=middle;whiteSpace=wrap;rounded=0;" vertex="1" parent="1">
          <mxGeometry x="360" y="140" width="40" height="20" as="geometry" />
        </mxCell>
        <mxCell id="pqLlUxx56A5nm1wLEIZ4-25" value="&lt;b&gt;&lt;i&gt;CK&amp;lt;0&amp;gt;&lt;/i&gt;&lt;/b&gt;" style="text;html=1;align=center;verticalAlign=middle;whiteSpace=wrap;rounded=0;strokeWidth=2;" vertex="1" parent="1">
          <mxGeometry x="496" y="255" width="60" height="30" as="geometry" />
        </mxCell>
        <mxCell id="pqLlUxx56A5nm1wLEIZ4-26" value="&lt;b&gt;&lt;i&gt;CK&amp;lt;1&amp;gt;&lt;/i&gt;&lt;/b&gt;" style="text;html=1;align=center;verticalAlign=middle;whiteSpace=wrap;rounded=0;strokeWidth=2;" vertex="1" parent="1">
          <mxGeometry x="440" y="150" width="60" height="30" as="geometry" />
        </mxCell>
        <mxCell id="pqLlUxx56A5nm1wLEIZ4-27" value="&lt;b&gt;&lt;i&gt;CK&amp;lt;2&amp;gt;&lt;/i&gt;&lt;/b&gt;" style="text;html=1;align=center;verticalAlign=middle;whiteSpace=wrap;rounded=0;strokeWidth=2;" vertex="1" parent="1">
          <mxGeometry x="330" y="120" width="60" height="30" as="geometry" />
        </mxCell>
        <mxCell id="pqLlUxx56A5nm1wLEIZ4-28" value="&lt;b&gt;&lt;i&gt;CK&amp;lt;3&amp;gt;&lt;/i&gt;&lt;/b&gt;" style="text;html=1;align=center;verticalAlign=middle;whiteSpace=wrap;rounded=0;strokeWidth=2;" vertex="1" parent="1">
          <mxGeometry x="210" y="140" width="60" height="30" as="geometry" />
        </mxCell>
        <mxCell id="pqLlUxx56A5nm1wLEIZ4-29" value="&lt;b&gt;&lt;i&gt;CK&amp;lt;4&amp;gt;&lt;/i&gt;&lt;/b&gt;" style="text;html=1;align=center;verticalAlign=middle;whiteSpace=wrap;rounded=0;strokeWidth=2;" vertex="1" parent="1">
          <mxGeometry x="170" y="255" width="60" height="30" as="geometry" />
        </mxCell>
        <mxCell id="pqLlUxx56A5nm1wLEIZ4-30" value="&lt;b&gt;&lt;i&gt;CK&amp;lt;5&amp;gt;&lt;/i&gt;&lt;/b&gt;" style="text;html=1;align=center;verticalAlign=middle;whiteSpace=wrap;rounded=0;strokeWidth=2;" vertex="1" parent="1">
          <mxGeometry x="180" y="390" width="60" height="30" as="geometry" />
        </mxCell>
        <mxCell id="pqLlUxx56A5nm1wLEIZ4-31" value="&lt;b&gt;&lt;i&gt;CK&amp;lt;6&amp;gt;&lt;/i&gt;&lt;/b&gt;" style="text;html=1;align=center;verticalAlign=middle;whiteSpace=wrap;rounded=0;strokeWidth=2;" vertex="1" parent="1">
          <mxGeometry x="310" y="410" width="60" height="30" as="geometry" />
        </mxCell>
        <mxCell id="pqLlUxx56A5nm1wLEIZ4-32" value="&lt;b&gt;&lt;i&gt;CK&amp;lt;7&amp;gt;&lt;/i&gt;&lt;/b&gt;" style="text;html=1;align=center;verticalAlign=middle;whiteSpace=wrap;rounded=0;strokeWidth=2;" vertex="1" parent="1">
          <mxGeometry x="425" y="390" width="60" height="30" as="geometry" />
        </mxCell>
        <mxCell id="pqLlUxx56A5nm1wLEIZ4-74" value="" style="endArrow=none;html=1;rounded=0;strokeWidth=3;strokeColor=#0000FF;" edge="1" parent="1">
          <mxGeometry width="50" height="50" relative="1" as="geometry">
            <mxPoint x="600" y="199.89" as="sourcePoint" />
            <mxPoint x="600" y="179.89" as="targetPoint" />
          </mxGeometry>
        </mxCell>
        <mxCell id="pqLlUxx56A5nm1wLEIZ4-75" value="" style="endArrow=none;html=1;rounded=0;strokeWidth=2;" edge="1" parent="1">
          <mxGeometry width="50" height="50" relative="1" as="geometry">
            <mxPoint x="680" y="179.89" as="sourcePoint" />
            <mxPoint x="600" y="179.89" as="targetPoint" />
          </mxGeometry>
        </mxCell>
        <mxCell id="pqLlUxx56A5nm1wLEIZ4-76" value="" style="endArrow=none;html=1;rounded=0;strokeWidth=2;" edge="1" parent="1">
          <mxGeometry width="50" height="50" relative="1" as="geometry">
            <mxPoint x="760" y="199.41" as="sourcePoint" />
            <mxPoint x="680" y="199.41" as="targetPoint" />
          </mxGeometry>
        </mxCell>
        <mxCell id="pqLlUxx56A5nm1wLEIZ4-77" value="" style="endArrow=none;html=1;rounded=0;strokeWidth=2;" edge="1" parent="1">
          <mxGeometry width="50" height="50" relative="1" as="geometry">
            <mxPoint x="680" y="199.89" as="sourcePoint" />
            <mxPoint x="680" y="179.89" as="targetPoint" />
          </mxGeometry>
        </mxCell>
        <mxCell id="pqLlUxx56A5nm1wLEIZ4-78" value="" style="endArrow=none;html=1;rounded=0;strokeWidth=2;" edge="1" parent="1">
          <mxGeometry width="50" height="50" relative="1" as="geometry">
            <mxPoint x="760" y="199.89" as="sourcePoint" />
            <mxPoint x="760" y="179.89" as="targetPoint" />
          </mxGeometry>
        </mxCell>
        <mxCell id="pqLlUxx56A5nm1wLEIZ4-79" value="" style="endArrow=none;html=1;rounded=0;strokeWidth=3;strokeColor=#0000FF;" edge="1" parent="1">
          <mxGeometry width="50" height="50" relative="1" as="geometry">
            <mxPoint x="620" y="229.89" as="sourcePoint" />
            <mxPoint x="620" y="209.89" as="targetPoint" />
          </mxGeometry>
        </mxCell>
        <mxCell id="pqLlUxx56A5nm1wLEIZ4-80" value="" style="endArrow=none;html=1;rounded=0;strokeWidth=2;" edge="1" parent="1">
          <mxGeometry width="50" height="50" relative="1" as="geometry">
            <mxPoint x="700" y="209.89" as="sourcePoint" />
            <mxPoint x="620" y="209.89" as="targetPoint" />
          </mxGeometry>
        </mxCell>
        <mxCell id="pqLlUxx56A5nm1wLEIZ4-81" value="" style="endArrow=none;html=1;rounded=0;strokeWidth=2;" edge="1" parent="1">
          <mxGeometry width="50" height="50" relative="1" as="geometry">
            <mxPoint x="780" y="229.41" as="sourcePoint" />
            <mxPoint x="700" y="229.41" as="targetPoint" />
          </mxGeometry>
        </mxCell>
        <mxCell id="pqLlUxx56A5nm1wLEIZ4-82" value="" style="endArrow=none;html=1;rounded=0;strokeWidth=2;" edge="1" parent="1">
          <mxGeometry width="50" height="50" relative="1" as="geometry">
            <mxPoint x="700" y="229.89" as="sourcePoint" />
            <mxPoint x="700" y="209.89" as="targetPoint" />
          </mxGeometry>
        </mxCell>
        <mxCell id="pqLlUxx56A5nm1wLEIZ4-83" value="" style="endArrow=none;html=1;rounded=0;strokeWidth=2;" edge="1" parent="1">
          <mxGeometry width="50" height="50" relative="1" as="geometry">
            <mxPoint x="780" y="229.89" as="sourcePoint" />
            <mxPoint x="780" y="209.89" as="targetPoint" />
          </mxGeometry>
        </mxCell>
        <mxCell id="pqLlUxx56A5nm1wLEIZ4-84" value="" style="endArrow=none;html=1;rounded=0;strokeWidth=3;strokeColor=#0000FF;" edge="1" parent="1">
          <mxGeometry width="50" height="50" relative="1" as="geometry">
            <mxPoint x="640" y="259.89" as="sourcePoint" />
            <mxPoint x="640" y="239.89" as="targetPoint" />
          </mxGeometry>
        </mxCell>
        <mxCell id="pqLlUxx56A5nm1wLEIZ4-85" value="" style="endArrow=none;html=1;rounded=0;strokeWidth=2;" edge="1" parent="1">
          <mxGeometry width="50" height="50" relative="1" as="geometry">
            <mxPoint x="720" y="239.89" as="sourcePoint" />
            <mxPoint x="640" y="239.89" as="targetPoint" />
          </mxGeometry>
        </mxCell>
        <mxCell id="pqLlUxx56A5nm1wLEIZ4-86" value="" style="endArrow=none;html=1;rounded=0;strokeWidth=2;" edge="1" parent="1">
          <mxGeometry width="50" height="50" relative="1" as="geometry">
            <mxPoint x="800" y="259.41" as="sourcePoint" />
            <mxPoint x="720" y="259.41" as="targetPoint" />
          </mxGeometry>
        </mxCell>
        <mxCell id="pqLlUxx56A5nm1wLEIZ4-87" value="" style="endArrow=none;html=1;rounded=0;strokeWidth=2;" edge="1" parent="1">
          <mxGeometry width="50" height="50" relative="1" as="geometry">
            <mxPoint x="720" y="259.89" as="sourcePoint" />
            <mxPoint x="720" y="239.89" as="targetPoint" />
          </mxGeometry>
        </mxCell>
        <mxCell id="pqLlUxx56A5nm1wLEIZ4-88" value="" style="endArrow=none;html=1;rounded=0;strokeWidth=2;" edge="1" parent="1">
          <mxGeometry width="50" height="50" relative="1" as="geometry">
            <mxPoint x="800" y="259.89" as="sourcePoint" />
            <mxPoint x="800" y="239.89" as="targetPoint" />
          </mxGeometry>
        </mxCell>
        <mxCell id="pqLlUxx56A5nm1wLEIZ4-89" value="" style="endArrow=none;html=1;rounded=0;strokeWidth=3;strokeColor=#0000FF;" edge="1" parent="1">
          <mxGeometry width="50" height="50" relative="1" as="geometry">
            <mxPoint x="660" y="289.89" as="sourcePoint" />
            <mxPoint x="660" y="269.89" as="targetPoint" />
          </mxGeometry>
        </mxCell>
        <mxCell id="pqLlUxx56A5nm1wLEIZ4-90" value="" style="endArrow=none;html=1;rounded=0;strokeWidth=2;" edge="1" parent="1">
          <mxGeometry width="50" height="50" relative="1" as="geometry">
            <mxPoint x="740" y="269.89" as="sourcePoint" />
            <mxPoint x="660" y="269.89" as="targetPoint" />
          </mxGeometry>
        </mxCell>
        <mxCell id="pqLlUxx56A5nm1wLEIZ4-91" value="" style="endArrow=none;html=1;rounded=0;strokeWidth=2;" edge="1" parent="1">
          <mxGeometry width="50" height="50" relative="1" as="geometry">
            <mxPoint x="820" y="289.40999999999997" as="sourcePoint" />
            <mxPoint x="740" y="289.40999999999997" as="targetPoint" />
          </mxGeometry>
        </mxCell>
        <mxCell id="pqLlUxx56A5nm1wLEIZ4-92" value="" style="endArrow=none;html=1;rounded=0;strokeWidth=2;" edge="1" parent="1">
          <mxGeometry width="50" height="50" relative="1" as="geometry">
            <mxPoint x="740" y="289.89" as="sourcePoint" />
            <mxPoint x="740" y="269.89" as="targetPoint" />
          </mxGeometry>
        </mxCell>
        <mxCell id="pqLlUxx56A5nm1wLEIZ4-93" value="" style="endArrow=none;html=1;rounded=0;strokeWidth=2;" edge="1" parent="1">
          <mxGeometry width="50" height="50" relative="1" as="geometry">
            <mxPoint x="820" y="289.89" as="sourcePoint" />
            <mxPoint x="820" y="269.89" as="targetPoint" />
          </mxGeometry>
        </mxCell>
        <mxCell id="pqLlUxx56A5nm1wLEIZ4-94" value="" style="endArrow=none;html=1;rounded=0;strokeWidth=3;strokeColor=#0000FF;" edge="1" parent="1">
          <mxGeometry width="50" height="50" relative="1" as="geometry">
            <mxPoint x="680" y="319.89" as="sourcePoint" />
            <mxPoint x="680" y="299.89" as="targetPoint" />
          </mxGeometry>
        </mxCell>
        <mxCell id="pqLlUxx56A5nm1wLEIZ4-95" value="" style="endArrow=none;html=1;rounded=0;strokeWidth=2;" edge="1" parent="1">
          <mxGeometry width="50" height="50" relative="1" as="geometry">
            <mxPoint x="760" y="299.89" as="sourcePoint" />
            <mxPoint x="680" y="299.89" as="targetPoint" />
          </mxGeometry>
        </mxCell>
        <mxCell id="pqLlUxx56A5nm1wLEIZ4-96" value="" style="endArrow=none;html=1;rounded=0;strokeWidth=2;" edge="1" parent="1">
          <mxGeometry width="50" height="50" relative="1" as="geometry">
            <mxPoint x="840" y="319.40999999999997" as="sourcePoint" />
            <mxPoint x="760" y="319.40999999999997" as="targetPoint" />
          </mxGeometry>
        </mxCell>
        <mxCell id="pqLlUxx56A5nm1wLEIZ4-97" value="" style="endArrow=none;html=1;rounded=0;strokeWidth=2;" edge="1" parent="1">
          <mxGeometry width="50" height="50" relative="1" as="geometry">
            <mxPoint x="760" y="319.89" as="sourcePoint" />
            <mxPoint x="760" y="299.89" as="targetPoint" />
          </mxGeometry>
        </mxCell>
        <mxCell id="pqLlUxx56A5nm1wLEIZ4-98" value="" style="endArrow=none;html=1;rounded=0;strokeWidth=2;" edge="1" parent="1">
          <mxGeometry width="50" height="50" relative="1" as="geometry">
            <mxPoint x="840" y="319.89" as="sourcePoint" />
            <mxPoint x="840" y="299.89" as="targetPoint" />
          </mxGeometry>
        </mxCell>
        <mxCell id="pqLlUxx56A5nm1wLEIZ4-99" value="" style="endArrow=none;html=1;rounded=0;strokeWidth=3;strokeColor=#0000FF;" edge="1" parent="1">
          <mxGeometry width="50" height="50" relative="1" as="geometry">
            <mxPoint x="700" y="349.89" as="sourcePoint" />
            <mxPoint x="700" y="329.89" as="targetPoint" />
          </mxGeometry>
        </mxCell>
        <mxCell id="pqLlUxx56A5nm1wLEIZ4-100" value="" style="endArrow=none;html=1;rounded=0;strokeWidth=2;" edge="1" parent="1">
          <mxGeometry width="50" height="50" relative="1" as="geometry">
            <mxPoint x="780" y="329.89" as="sourcePoint" />
            <mxPoint x="700" y="329.89" as="targetPoint" />
          </mxGeometry>
        </mxCell>
        <mxCell id="pqLlUxx56A5nm1wLEIZ4-101" value="" style="endArrow=none;html=1;rounded=0;strokeWidth=2;" edge="1" parent="1">
          <mxGeometry width="50" height="50" relative="1" as="geometry">
            <mxPoint x="860" y="349.40999999999997" as="sourcePoint" />
            <mxPoint x="780" y="349.40999999999997" as="targetPoint" />
          </mxGeometry>
        </mxCell>
        <mxCell id="pqLlUxx56A5nm1wLEIZ4-102" value="" style="endArrow=none;html=1;rounded=0;strokeWidth=2;" edge="1" parent="1">
          <mxGeometry width="50" height="50" relative="1" as="geometry">
            <mxPoint x="780" y="349.89" as="sourcePoint" />
            <mxPoint x="780" y="329.89" as="targetPoint" />
          </mxGeometry>
        </mxCell>
        <mxCell id="pqLlUxx56A5nm1wLEIZ4-103" value="" style="endArrow=none;html=1;rounded=0;strokeWidth=2;" edge="1" parent="1">
          <mxGeometry width="50" height="50" relative="1" as="geometry">
            <mxPoint x="860" y="349.89" as="sourcePoint" />
            <mxPoint x="860" y="329.89" as="targetPoint" />
          </mxGeometry>
        </mxCell>
        <mxCell id="pqLlUxx56A5nm1wLEIZ4-104" value="" style="endArrow=none;html=1;rounded=0;strokeWidth=3;strokeColor=#0000FF;" edge="1" parent="1">
          <mxGeometry width="50" height="50" relative="1" as="geometry">
            <mxPoint x="720" y="379.89" as="sourcePoint" />
            <mxPoint x="720" y="359.89" as="targetPoint" />
          </mxGeometry>
        </mxCell>
        <mxCell id="pqLlUxx56A5nm1wLEIZ4-105" value="" style="endArrow=none;html=1;rounded=0;strokeWidth=2;" edge="1" parent="1">
          <mxGeometry width="50" height="50" relative="1" as="geometry">
            <mxPoint x="800" y="359.89" as="sourcePoint" />
            <mxPoint x="720" y="359.89" as="targetPoint" />
          </mxGeometry>
        </mxCell>
        <mxCell id="pqLlUxx56A5nm1wLEIZ4-106" value="" style="endArrow=none;html=1;rounded=0;strokeWidth=2;" edge="1" parent="1">
          <mxGeometry width="50" height="50" relative="1" as="geometry">
            <mxPoint x="880" y="379.40999999999997" as="sourcePoint" />
            <mxPoint x="800" y="379.40999999999997" as="targetPoint" />
          </mxGeometry>
        </mxCell>
        <mxCell id="pqLlUxx56A5nm1wLEIZ4-107" value="" style="endArrow=none;html=1;rounded=0;strokeWidth=2;" edge="1" parent="1">
          <mxGeometry width="50" height="50" relative="1" as="geometry">
            <mxPoint x="800" y="379.89" as="sourcePoint" />
            <mxPoint x="800" y="359.89" as="targetPoint" />
          </mxGeometry>
        </mxCell>
        <mxCell id="pqLlUxx56A5nm1wLEIZ4-108" value="" style="endArrow=none;html=1;rounded=0;strokeWidth=2;" edge="1" parent="1">
          <mxGeometry width="50" height="50" relative="1" as="geometry">
            <mxPoint x="880" y="379.89" as="sourcePoint" />
            <mxPoint x="880" y="359.89" as="targetPoint" />
          </mxGeometry>
        </mxCell>
        <mxCell id="pqLlUxx56A5nm1wLEIZ4-109" value="" style="endArrow=none;html=1;rounded=0;strokeWidth=3;strokeColor=#0000FF;" edge="1" parent="1">
          <mxGeometry width="50" height="50" relative="1" as="geometry">
            <mxPoint x="740" y="409.89" as="sourcePoint" />
            <mxPoint x="740" y="389.89" as="targetPoint" />
          </mxGeometry>
        </mxCell>
        <mxCell id="pqLlUxx56A5nm1wLEIZ4-110" value="" style="endArrow=none;html=1;rounded=0;strokeWidth=2;" edge="1" parent="1">
          <mxGeometry width="50" height="50" relative="1" as="geometry">
            <mxPoint x="820" y="389.89" as="sourcePoint" />
            <mxPoint x="740" y="389.89" as="targetPoint" />
          </mxGeometry>
        </mxCell>
        <mxCell id="pqLlUxx56A5nm1wLEIZ4-111" value="" style="endArrow=none;html=1;rounded=0;strokeWidth=2;" edge="1" parent="1">
          <mxGeometry width="50" height="50" relative="1" as="geometry">
            <mxPoint x="900" y="409.40999999999997" as="sourcePoint" />
            <mxPoint x="820" y="409.40999999999997" as="targetPoint" />
          </mxGeometry>
        </mxCell>
        <mxCell id="pqLlUxx56A5nm1wLEIZ4-112" value="" style="endArrow=none;html=1;rounded=0;strokeWidth=2;" edge="1" parent="1">
          <mxGeometry width="50" height="50" relative="1" as="geometry">
            <mxPoint x="820" y="409.89" as="sourcePoint" />
            <mxPoint x="820" y="389.89" as="targetPoint" />
          </mxGeometry>
        </mxCell>
        <mxCell id="pqLlUxx56A5nm1wLEIZ4-113" value="" style="endArrow=none;html=1;rounded=0;strokeWidth=2;" edge="1" parent="1">
          <mxGeometry width="50" height="50" relative="1" as="geometry">
            <mxPoint x="900" y="409.89" as="sourcePoint" />
            <mxPoint x="900" y="389.89" as="targetPoint" />
          </mxGeometry>
        </mxCell>
        <mxCell id="pqLlUxx56A5nm1wLEIZ4-119" value="" style="endArrow=none;html=1;rounded=0;strokeWidth=2;" edge="1" parent="1">
          <mxGeometry width="50" height="50" relative="1" as="geometry">
            <mxPoint x="840" y="179.89" as="sourcePoint" />
            <mxPoint x="760" y="179.89" as="targetPoint" />
          </mxGeometry>
        </mxCell>
        <mxCell id="pqLlUxx56A5nm1wLEIZ4-120" value="" style="endArrow=none;html=1;rounded=0;strokeWidth=2;" edge="1" parent="1">
          <mxGeometry width="50" height="50" relative="1" as="geometry">
            <mxPoint x="860" y="209.89" as="sourcePoint" />
            <mxPoint x="780" y="209.89" as="targetPoint" />
          </mxGeometry>
        </mxCell>
        <mxCell id="pqLlUxx56A5nm1wLEIZ4-121" value="" style="endArrow=none;html=1;rounded=0;strokeWidth=2;" edge="1" parent="1">
          <mxGeometry width="50" height="50" relative="1" as="geometry">
            <mxPoint x="880" y="239.89" as="sourcePoint" />
            <mxPoint x="800" y="239.89" as="targetPoint" />
          </mxGeometry>
        </mxCell>
        <mxCell id="pqLlUxx56A5nm1wLEIZ4-122" value="" style="endArrow=none;html=1;rounded=0;strokeWidth=2;" edge="1" parent="1">
          <mxGeometry width="50" height="50" relative="1" as="geometry">
            <mxPoint x="900" y="269.89" as="sourcePoint" />
            <mxPoint x="820" y="269.89" as="targetPoint" />
          </mxGeometry>
        </mxCell>
        <mxCell id="pqLlUxx56A5nm1wLEIZ4-123" value="" style="endArrow=none;html=1;rounded=0;strokeWidth=2;" edge="1" parent="1">
          <mxGeometry width="50" height="50" relative="1" as="geometry">
            <mxPoint x="920" y="299.61" as="sourcePoint" />
            <mxPoint x="840" y="299.89" as="targetPoint" />
          </mxGeometry>
        </mxCell>
        <mxCell id="pqLlUxx56A5nm1wLEIZ4-124" value="" style="endArrow=none;html=1;rounded=0;strokeWidth=2;" edge="1" parent="1">
          <mxGeometry width="50" height="50" relative="1" as="geometry">
            <mxPoint x="920" y="329.89" as="sourcePoint" />
            <mxPoint x="860" y="329.89" as="targetPoint" />
          </mxGeometry>
        </mxCell>
        <mxCell id="pqLlUxx56A5nm1wLEIZ4-125" value="" style="endArrow=none;html=1;rounded=0;strokeWidth=2;" edge="1" parent="1">
          <mxGeometry width="50" height="50" relative="1" as="geometry">
            <mxPoint x="920" y="359.89" as="sourcePoint" />
            <mxPoint x="880" y="359.89" as="targetPoint" />
          </mxGeometry>
        </mxCell>
        <mxCell id="pqLlUxx56A5nm1wLEIZ4-126" value="" style="endArrow=none;html=1;rounded=0;strokeWidth=2;" edge="1" parent="1">
          <mxGeometry width="50" height="50" relative="1" as="geometry">
            <mxPoint x="920" y="389.89" as="sourcePoint" />
            <mxPoint x="900" y="389.89" as="targetPoint" />
          </mxGeometry>
        </mxCell>
        <mxCell id="pqLlUxx56A5nm1wLEIZ4-127" value="" style="endArrow=none;html=1;rounded=0;strokeWidth=2;" edge="1" parent="1">
          <mxGeometry width="50" height="50" relative="1" as="geometry">
            <mxPoint x="920" y="199.41" as="sourcePoint" />
            <mxPoint x="840" y="199.41" as="targetPoint" />
          </mxGeometry>
        </mxCell>
        <mxCell id="pqLlUxx56A5nm1wLEIZ4-128" value="" style="endArrow=none;html=1;rounded=0;strokeWidth=2;" edge="1" parent="1">
          <mxGeometry width="50" height="50" relative="1" as="geometry">
            <mxPoint x="840" y="199.89" as="sourcePoint" />
            <mxPoint x="840" y="179.89" as="targetPoint" />
          </mxGeometry>
        </mxCell>
        <mxCell id="pqLlUxx56A5nm1wLEIZ4-130" value="" style="endArrow=none;html=1;rounded=0;strokeWidth=2;" edge="1" parent="1">
          <mxGeometry width="50" height="50" relative="1" as="geometry">
            <mxPoint x="920" y="229.89" as="sourcePoint" />
            <mxPoint x="860" y="229.89" as="targetPoint" />
          </mxGeometry>
        </mxCell>
        <mxCell id="pqLlUxx56A5nm1wLEIZ4-131" value="" style="endArrow=none;html=1;rounded=0;strokeWidth=2;" edge="1" parent="1">
          <mxGeometry width="50" height="50" relative="1" as="geometry">
            <mxPoint x="860" y="229.89" as="sourcePoint" />
            <mxPoint x="860" y="209.89" as="targetPoint" />
          </mxGeometry>
        </mxCell>
        <mxCell id="pqLlUxx56A5nm1wLEIZ4-133" value="" style="endArrow=none;html=1;rounded=0;strokeWidth=2;" edge="1" parent="1">
          <mxGeometry width="50" height="50" relative="1" as="geometry">
            <mxPoint x="920" y="259.89" as="sourcePoint" />
            <mxPoint x="880" y="259.89" as="targetPoint" />
          </mxGeometry>
        </mxCell>
        <mxCell id="pqLlUxx56A5nm1wLEIZ4-134" value="" style="endArrow=none;html=1;rounded=0;strokeWidth=2;" edge="1" parent="1">
          <mxGeometry width="50" height="50" relative="1" as="geometry">
            <mxPoint x="880" y="259.89" as="sourcePoint" />
            <mxPoint x="880" y="239.89" as="targetPoint" />
          </mxGeometry>
        </mxCell>
        <mxCell id="pqLlUxx56A5nm1wLEIZ4-136" value="" style="endArrow=none;html=1;rounded=0;strokeWidth=2;" edge="1" parent="1">
          <mxGeometry width="50" height="50" relative="1" as="geometry">
            <mxPoint x="920" y="289.89" as="sourcePoint" />
            <mxPoint x="900" y="289.89" as="targetPoint" />
          </mxGeometry>
        </mxCell>
        <mxCell id="pqLlUxx56A5nm1wLEIZ4-137" value="" style="endArrow=none;html=1;rounded=0;strokeWidth=2;" edge="1" parent="1">
          <mxGeometry width="50" height="50" relative="1" as="geometry">
            <mxPoint x="900" y="289.89" as="sourcePoint" />
            <mxPoint x="900" y="269.89" as="targetPoint" />
          </mxGeometry>
        </mxCell>
        <mxCell id="pqLlUxx56A5nm1wLEIZ4-151" value="" style="endArrow=none;html=1;rounded=0;strokeWidth=3;strokeColor=#000000;" edge="1" parent="1">
          <mxGeometry width="50" height="50" relative="1" as="geometry">
            <mxPoint x="620" y="229.89" as="sourcePoint" />
            <mxPoint x="600" y="229.89" as="targetPoint" />
          </mxGeometry>
        </mxCell>
        <mxCell id="pqLlUxx56A5nm1wLEIZ4-152" value="" style="endArrow=none;html=1;rounded=0;strokeWidth=3;strokeColor=#000000;" edge="1" parent="1">
          <mxGeometry width="50" height="50" relative="1" as="geometry">
            <mxPoint x="640" y="259.89" as="sourcePoint" />
            <mxPoint x="600" y="259.89" as="targetPoint" />
          </mxGeometry>
        </mxCell>
        <mxCell id="pqLlUxx56A5nm1wLEIZ4-153" value="" style="endArrow=none;html=1;rounded=0;strokeWidth=2;" edge="1" parent="1">
          <mxGeometry width="50" height="50" relative="1" as="geometry">
            <mxPoint x="660" y="289.75" as="sourcePoint" />
            <mxPoint x="600" y="289.89" as="targetPoint" />
          </mxGeometry>
        </mxCell>
        <mxCell id="pqLlUxx56A5nm1wLEIZ4-154" value="" style="endArrow=none;html=1;rounded=0;strokeWidth=2;" edge="1" parent="1">
          <mxGeometry width="50" height="50" relative="1" as="geometry">
            <mxPoint x="680" y="319.89" as="sourcePoint" />
            <mxPoint x="600" y="319.89" as="targetPoint" />
          </mxGeometry>
        </mxCell>
        <mxCell id="pqLlUxx56A5nm1wLEIZ4-155" value="" style="endArrow=none;html=1;rounded=0;strokeWidth=2;" edge="1" parent="1">
          <mxGeometry width="50" height="50" relative="1" as="geometry">
            <mxPoint x="700" y="349.89" as="sourcePoint" />
            <mxPoint x="620" y="349.89" as="targetPoint" />
          </mxGeometry>
        </mxCell>
        <mxCell id="pqLlUxx56A5nm1wLEIZ4-156" value="" style="endArrow=none;html=1;rounded=0;strokeWidth=2;" edge="1" parent="1">
          <mxGeometry width="50" height="50" relative="1" as="geometry">
            <mxPoint x="720" y="379.89" as="sourcePoint" />
            <mxPoint x="640" y="379.89" as="targetPoint" />
          </mxGeometry>
        </mxCell>
        <mxCell id="pqLlUxx56A5nm1wLEIZ4-157" value="" style="endArrow=none;html=1;rounded=0;strokeWidth=2;" edge="1" parent="1">
          <mxGeometry width="50" height="50" relative="1" as="geometry">
            <mxPoint x="740" y="409.89" as="sourcePoint" />
            <mxPoint x="660" y="409.89" as="targetPoint" />
          </mxGeometry>
        </mxCell>
        <mxCell id="pqLlUxx56A5nm1wLEIZ4-158" value="" style="endArrow=none;html=1;rounded=0;strokeWidth=2;" edge="1" parent="1">
          <mxGeometry width="50" height="50" relative="1" as="geometry">
            <mxPoint x="600" y="319.89" as="sourcePoint" />
            <mxPoint x="600" y="299.89" as="targetPoint" />
          </mxGeometry>
        </mxCell>
        <mxCell id="pqLlUxx56A5nm1wLEIZ4-159" value="" style="endArrow=none;html=1;rounded=0;strokeWidth=2;" edge="1" parent="1">
          <mxGeometry width="50" height="50" relative="1" as="geometry">
            <mxPoint x="620" y="349.89" as="sourcePoint" />
            <mxPoint x="620" y="329.89" as="targetPoint" />
          </mxGeometry>
        </mxCell>
        <mxCell id="pqLlUxx56A5nm1wLEIZ4-160" value="" style="endArrow=none;html=1;rounded=0;strokeWidth=2;" edge="1" parent="1">
          <mxGeometry width="50" height="50" relative="1" as="geometry">
            <mxPoint x="640" y="379.89" as="sourcePoint" />
            <mxPoint x="640" y="359.89" as="targetPoint" />
          </mxGeometry>
        </mxCell>
        <mxCell id="pqLlUxx56A5nm1wLEIZ4-161" value="" style="endArrow=none;html=1;rounded=0;strokeWidth=2;" edge="1" parent="1">
          <mxGeometry width="50" height="50" relative="1" as="geometry">
            <mxPoint x="660" y="409.89" as="sourcePoint" />
            <mxPoint x="660" y="389.89" as="targetPoint" />
          </mxGeometry>
        </mxCell>
        <mxCell id="pqLlUxx56A5nm1wLEIZ4-162" value="" style="endArrow=none;html=1;rounded=0;strokeWidth=2;" edge="1" parent="1">
          <mxGeometry width="50" height="50" relative="1" as="geometry">
            <mxPoint x="660" y="389.89" as="sourcePoint" />
            <mxPoint x="600" y="389.89" as="targetPoint" />
          </mxGeometry>
        </mxCell>
        <mxCell id="pqLlUxx56A5nm1wLEIZ4-163" value="" style="endArrow=none;html=1;rounded=0;strokeWidth=2;" edge="1" parent="1">
          <mxGeometry width="50" height="50" relative="1" as="geometry">
            <mxPoint x="620" y="329.89" as="sourcePoint" />
            <mxPoint x="600" y="329.89" as="targetPoint" />
          </mxGeometry>
        </mxCell>
        <mxCell id="pqLlUxx56A5nm1wLEIZ4-164" value="" style="endArrow=none;html=1;rounded=0;strokeWidth=2;" edge="1" parent="1">
          <mxGeometry width="50" height="50" relative="1" as="geometry">
            <mxPoint x="640" y="359.89" as="sourcePoint" />
            <mxPoint x="600" y="359.89" as="targetPoint" />
          </mxGeometry>
        </mxCell>
        <mxCell id="pqLlUxx56A5nm1wLEIZ4-165" value="&lt;b&gt;&lt;i&gt;&lt;font style=&quot;font-size: 8px; color: rgb(0, 0, 255);&quot;&gt;CK&amp;lt;0&amp;gt;&lt;/font&gt;&lt;/i&gt;&lt;/b&gt;" style="text;html=1;align=center;verticalAlign=middle;whiteSpace=wrap;rounded=0;strokeWidth=2;" vertex="1" parent="1">
          <mxGeometry x="580" y="154.89" width="60" height="30" as="geometry" />
        </mxCell>
        <mxCell id="pqLlUxx56A5nm1wLEIZ4-166" value="&lt;b&gt;&lt;i&gt;&lt;font style=&quot;font-size: 8px; color: rgb(0, 0, 255);&quot;&gt;CK&amp;lt;1&amp;gt;&lt;/font&gt;&lt;/i&gt;&lt;/b&gt;" style="text;html=1;align=center;verticalAlign=middle;whiteSpace=wrap;rounded=0;strokeWidth=2;" vertex="1" parent="1">
          <mxGeometry x="600" y="184.89" width="60" height="30" as="geometry" />
        </mxCell>
        <mxCell id="pqLlUxx56A5nm1wLEIZ4-167" value="&lt;b&gt;&lt;i&gt;&lt;font style=&quot;font-size: 8px; color: rgb(0, 0, 255);&quot;&gt;CK&amp;lt;2&amp;gt;&lt;/font&gt;&lt;/i&gt;&lt;/b&gt;" style="text;html=1;align=center;verticalAlign=middle;whiteSpace=wrap;rounded=0;strokeWidth=2;" vertex="1" parent="1">
          <mxGeometry x="620" y="214.89" width="60" height="30" as="geometry" />
        </mxCell>
        <mxCell id="pqLlUxx56A5nm1wLEIZ4-168" value="&lt;b&gt;&lt;i&gt;&lt;font style=&quot;font-size: 8px; color: rgb(0, 0, 255);&quot;&gt;CK&amp;lt;3&amp;gt;&lt;/font&gt;&lt;/i&gt;&lt;/b&gt;" style="text;html=1;align=center;verticalAlign=middle;whiteSpace=wrap;rounded=0;strokeWidth=2;" vertex="1" parent="1">
          <mxGeometry x="640" y="244.89" width="60" height="30" as="geometry" />
        </mxCell>
        <mxCell id="pqLlUxx56A5nm1wLEIZ4-169" value="&lt;b&gt;&lt;i&gt;&lt;font style=&quot;font-size: 8px; color: rgb(0, 0, 255);&quot;&gt;CK&amp;lt;4&amp;gt;&lt;/font&gt;&lt;/i&gt;&lt;/b&gt;" style="text;html=1;align=center;verticalAlign=middle;whiteSpace=wrap;rounded=0;strokeWidth=2;" vertex="1" parent="1">
          <mxGeometry x="660" y="274.89" width="60" height="30" as="geometry" />
        </mxCell>
        <mxCell id="pqLlUxx56A5nm1wLEIZ4-170" value="&lt;b&gt;&lt;i&gt;&lt;font style=&quot;font-size: 8px; color: rgb(0, 0, 255);&quot;&gt;CK&amp;lt;5&amp;gt;&lt;/font&gt;&lt;/i&gt;&lt;/b&gt;" style="text;html=1;align=center;verticalAlign=middle;whiteSpace=wrap;rounded=0;strokeWidth=2;" vertex="1" parent="1">
          <mxGeometry x="680" y="304.89" width="60" height="30" as="geometry" />
        </mxCell>
        <mxCell id="pqLlUxx56A5nm1wLEIZ4-171" value="&lt;b&gt;&lt;i&gt;&lt;font style=&quot;font-size: 8px; color: rgb(0, 0, 255);&quot;&gt;CK&amp;lt;6&amp;gt;&lt;/font&gt;&lt;/i&gt;&lt;/b&gt;" style="text;html=1;align=center;verticalAlign=middle;whiteSpace=wrap;rounded=0;strokeWidth=2;" vertex="1" parent="1">
          <mxGeometry x="700" y="334.89" width="60" height="30" as="geometry" />
        </mxCell>
        <mxCell id="pqLlUxx56A5nm1wLEIZ4-172" value="&lt;b&gt;&lt;i&gt;&lt;font style=&quot;font-size: 8px; color: rgb(0, 0, 255);&quot;&gt;CK&amp;lt;7&amp;gt;&lt;/font&gt;&lt;/i&gt;&lt;/b&gt;" style="text;html=1;align=center;verticalAlign=middle;whiteSpace=wrap;rounded=0;strokeWidth=2;" vertex="1" parent="1">
          <mxGeometry x="720" y="364.89" width="60" height="30" as="geometry" />
        </mxCell>
      </root>
    </mxGraphModel>
  </diagram>
</mxfile>
